<?xml version="1.0" encoding="UTF-8" standalone="no" ?>
<!DOCTYPE svg PUBLIC "-//W3C//DTD SVG 1.1//EN" "http://www.w3.org/Graphics/SVG/1.1/DTD/svg11.dtd">
<svg xmlns="http://www.w3.org/2000/svg" xmlns:xlink="http://www.w3.org/1999/xlink" version="1.1" width="1280" height="1024" viewBox="0 0 1280 1024" xml:space="preserve">
<desc>Created with Fabric.js 5.3.0</desc>
<defs>
</defs>
<g transform="matrix(1 0 0 1 640 512)" id="background-logo"  >
<rect style="stroke: none; stroke-width: 0; stroke-dasharray: none; stroke-linecap: butt; stroke-dashoffset: 0; stroke-linejoin: miter; stroke-miterlimit: 4; fill: rgb(255,255,255); fill-opacity: 0; fill-rule: nonzero; opacity: 1;"  paint-order="stroke"  x="-640" y="-512" rx="0" ry="0" width="1280" height="1024" />
</g>
<g transform="matrix(4.446916502032149 0 0 4.446916502032149 640.1011133603238 489.7724146384667)" id="logo-logo"  >
<g style=""  paint-order="stroke"   >
		<g transform="matrix(1.153829125519472 0 0 1.153829125519472 -0.5820101546848946 0.27462795356936454)"  >
<linearGradient id="SVGID_48_79866" gradientUnits="userSpaceOnUse" gradientTransform="matrix(1 0 0 1 95.71121966585451 82.9527431197991)"  x1="0" y1="0" x2="0" y2="135">
<stop offset="0%" style="stop-color:rgb(245,81,95);stop-opacity: 1"/>
<stop offset="100%" style="stop-color:rgb(159,4,27);stop-opacity: 1"/>
</linearGradient>
<path style="stroke: none; stroke-width: 1; stroke-dasharray: none; stroke-linecap: butt; stroke-dashoffset: 0; stroke-linejoin: miter; stroke-miterlimit: 4; fill: url(#SVGID_48_79866); fill-rule: nonzero; opacity: 1;"  paint-order="stroke"  transform=" translate(-186.99558743747525, -150.23801390989956)" d="M 278.1771851 140.7989807 C 278.147583 140.32504269999998 278.10742189999996 139.86111449999999 278.0577393 139.39291379999997 C 278.0570679 139.38546749999998 278.0556641 139.37783809999996 278.05487059999996 139.37033079999998 L 277.99755859999993 138.84396359999997 C 277.9271850999999 138.21066279999997 277.84289549999994 137.57583619999997 277.7469481999999 136.94003289999998 C 277.7315062999999 136.83859249999998 277.7114256999999 136.73641959999998 277.6953734999999 136.63473499999998 C 277.5865477999999 135.94290149999998 277.46063229999993 135.24984729999997 277.3217772999999 134.5559386 C 277.2911376999999 134.40371689999998 277.2593993999999 134.2517394 277.2272948999999 134.09939559999998 C 276.8851317999999 132.4656676 276.4631346999999 130.82833849999997 275.9567260999999 129.1917418 C 275.6180419999999 127.63961779999998 274.98913579999993 126.14566029999999 274.3761596999999 124.70089709999999 L 274.0828246999999 124.00527939999999 C 274.0826415999999 124.00491319999999 274.0823363999999 124.00460799999999 274.0821532999999 124.00424179999999 C 272.3558348999999 119.8139952 270.1286010999999 115.71865829999999 267.4610594999999 111.83431989999998 C 266.2293699999999 110.03604109999998 264.88879389999994 108.27218609999998 263.4803465999999 106.59329209999999 C 261.2482908999999 103.92214949999999 258.8499144999999 101.47744739999999 256.35412589999993 99.32852159999999 C 256.26239009999995 99.2487487 256.18212879999993 99.18325789999999 256.1563109999999 99.1694029 C 252.6667479999999 96.1728819 248.7472533999999 93.55526719999999 244.5076293999999 91.3895567 C 223.2119750999999 80.4675596 191.8499145999999 80.1311949 160.6149901999999 90.4899595 C 153.2092284999999 92.94088719999999 146.3223265999999 95.7696836 140.14398189999991 98.8985288 C 140.1076659999999 98.91427589999999 140.0684813999999 98.9329526 140.0321654999999 98.9510801 L 140.0316771999999 98.9496763 C 137.5095824999999 100.2214659 135.2330931999999 101.46792579999999 133.0759886999999 102.75833109999999 C 114.78497309999989 113.5800474 103.0450438999999 127.64816259999999 98.1823729999999 144.5727842 C 97.0310057999999 148.5926206 96.25555419999989 152.8251035 95.8771971999999 157.1736753 L 95.7749632999999 158.60122660000002 C 95.7739866999999 158.60885600000003 95.7687376999999 158.71395850000002 95.7682493999999 158.721649 C 95.7677610999999 158.7300108 95.7681272999999 158.73849470000002 95.7676389999999 158.7468565 C 95.7273557999999 159.5345762 95.71051009999991 160.3201597 95.7112424999999 161.1029966 C 95.7117917999999 161.2804868 95.7202756999999 161.4569395 95.7230832999999 161.63449070000001 C 95.7319333999999 162.3314511 95.7555539999999 163.0251767 95.7965695999999 163.7156064 C 95.5886838999999 170.433624 96.8291623999999 175.3186948 99.5685422999999 178.63259860000002 C 99.7285764999999 178.96054050000004 99.89501939999991 179.28262300000003 100.0643918999999 179.60263030000002 C 100.1845700999999 179.83114590000002 100.3056027999999 180.05856290000003 100.4306638999999 180.2829892 C 100.5584714999999 180.5112607 100.6894529999999 180.7358701 100.8220823999999 180.9596249 C 100.9890745999999 181.2423397 101.1594236999999 181.5215145 101.3342893999999 181.7967831 C 101.3950803999999 181.8924252 101.4507444999999 181.9931942 101.5123899999999 182.0878598 C 101.55688459999989 182.1561581 101.6075437999999 182.2174374 101.65258779999989 182.2853696 C 102.05310049999989 182.8896176 102.4654539999999 183.48171969999999 102.9026487999999 184.0457456 C 103.72686759999989 185.0970151 104.5868528999999 186.0519102 105.4545286999999 186.8812559 C 105.4546507999999 186.881378 105.4547117999999 186.88156110000003 105.4548338999999 186.8816831 C 105.4551390999999 186.88198830000002 105.4555052999999 186.8822935 105.4558104999999 186.8825986 C 105.4567259999999 186.88351409999999 105.4577025999999 186.88461279999999 105.45867919999989 186.8855283 C 105.87487789999989 187.2873227 106.3062743999999 187.6708677 106.74676509999989 188.04446380000002 C 110.23815909999989 191.057037 114.2471922999999 193.1278378 118.98870849999989 194.3754575 C 119.71490479999989 194.60446140000002 120.44921879999988 194.8164365 121.1859130999999 195.0240171 C 121.22753909999989 195.0358579 121.2685546999999 195.0484312 121.31024169999989 195.06021090000002 C 121.91961669999989 195.2309873 122.52893069999989 195.39559910000003 123.14123539999989 195.5555112 C 123.29760749999988 195.5965879 123.45330819999988 195.6372373 123.60980229999988 195.67764250000002 C 124.87487799999988 196.0033261 126.14007569999988 196.31808440000003 127.39117439999988 196.62228360000003 C 129.09436039999989 197.03597990000003 130.85491949999988 197.46499600000004 132.5738525999999 197.92752040000002 C 134.20001229999988 198.36959800000002 135.7250366999999 198.8841854 137.1987915999999 199.48910490000003 C 137.2506714999999 199.51040620000003 137.3010864999999 199.53469820000004 137.3528442999999 199.55624360000002 C 137.7904052999999 199.73812840000002 138.2249145999999 199.92526220000002 138.6549072999999 200.1237485 C 138.6594238999999 200.1260068 138.6641235999999 200.1282041 138.6687011999999 200.1302793 C 138.9221801999999 200.2456357 139.1761474999999 200.37429790000002 139.4294433999999 200.4963682 C 139.6760253999999 200.6150816 139.9207763999999 200.7264097 140.16998299999992 200.8528745 C 140.67529309999992 201.1093442 141.1856689999999 201.381561 141.70812999999993 201.67312600000002 C 145.40173349999992 203.73324560000003 148.65527359999993 206.22518900000003 152.0999146999999 208.86343360000004 L 152.5404053999999 209.19973730000004 C 154.55029309999992 210.73239110000003 156.3782349999999 212.11410500000005 158.3958130999999 213.51962260000005 C 162.4629517999999 216.35464460000006 166.0285034999999 217.52328470000003 169.2332764999999 217.52328470000003 C 176.9453125999999 217.52328470000003 182.5675660999999 210.75534040000002 188.0574952999999 204.14602640000004 C 189.32257099999993 202.62289410000005 190.6306764999999 201.04824810000005 191.95501729999992 199.56332380000003 C 200.64068619999992 189.83999620000003 212.58465599999994 182.89907820000002 226.49700949999993 179.48983750000002 C 229.96649189999994 178.6355895 233.58221459999993 178.29922470000002 237.07940699999995 177.97433460000002 C 238.66461209999994 177.82723990000002 240.30334499999995 177.67434680000002 241.90954619999994 177.47555530000002 C 245.06945829999995 177.089569 247.60156279999993 176.58120720000002 249.92919949999992 175.85885610000003 C 250.64013699999992 175.63430780000002 251.35003689999994 175.4097594 252.0351564999999 175.16513050000003 C 252.52728299999993 175.00460800000002 253.0203249999999 174.83261100000004 253.4732057999999 174.66250600000004 C 253.5735475999999 174.62911980000004 253.6624147999999 174.59658800000003 253.7512819999999 174.56314080000004 C 254.3446657999999 174.33859250000003 254.9294435999999 174.11502070000003 255.51324489999988 173.88186640000004 C 255.53430199999988 173.87423700000002 255.55529809999987 173.86563100000004 255.57635529999988 173.85702510000004 L 255.57635529999988 173.85891720000004 C 256.18212919999985 173.61050410000004 256.78698759999986 173.36209100000005 257.39178499999986 173.09359740000005 C 257.99853549999983 172.82601930000004 258.6053469999999 172.54702760000006 259.20349149999987 172.25845340000004 C 259.7997438999999 171.96987920000004 260.39593529999985 171.67178350000003 260.9749758999999 171.36788940000002 C 261.3524172999999 171.1730041 261.7298586999999 170.95993040000002 262.0700075999999 170.76113890000002 C 262.3920290999999 170.58627320000002 262.7064211999999 170.39804080000002 263.0131227999999 170.21365350000002 L 263.2204591999999 170.089447 C 263.55011009999987 169.8916321 263.87976099999986 169.69381710000002 264.21801779999987 169.4807434 C 269.11218279999986 166.334259 272.77087419999987 162.5274353 275.0908815999999 158.1674499 C 276.5690919999999 155.3801574 277.53033469999986 152.3254089 277.9468996999999 149.0861511 C 277.9468996999999 149.0861511 277.9468996999999 149.0861511 277.9468996999999 149.0857239 C 278.2918701 146.3911438 278.3692627 143.6010437 278.1771851 140.7989807 z M 275.4378052 135.1329651 C 275.5567017 135.7358093 275.6671753 136.3374329 275.7622071 136.936676 C 275.7730714 137.0057068 275.7866212 137.0749817 275.7971802 137.1440124 C 275.815857 137.2663879 275.8296509 137.3883361 275.84741210000004 137.5107116 C 275.9087524 137.9308776 275.9571533 138.3484802 276.0065918 138.7662048 L 275.9603882 138.8487243 C 272.6803589 144.5992126 266.9456177 149.3190612 261.3227539 153.5005798 C 265.7763672 149.5423889 269.12213130000004 145.7964782 271.689209 141.8849182 C 272.9227905 140.0003357 274.5016479 137.5742493 275.4378052 135.1329651 z M 255.1859741 102.1175842 C 255.3622436 101.8721618 255.5379638 101.6269836 255.7091675 101.3794861 C 255.92749030000002 101.5733338 256.1452637 101.76809689999999 256.3618775 101.9666443 C 256.6053467 102.1897278 256.8494874 102.4110413 257.0906983 102.639801 C 257.4311524 102.9628601 257.7671509 103.2962341 258.10284429999996 103.63034060000001 C 258.32391359999997 103.85031130000002 258.54675299999997 104.0661316 258.765564 104.29074100000001 C 259.1350098 104.67007450000001 259.4981079 105.06155400000002 259.8607788 105.45364380000001 C 260.0388794 105.64620970000001 260.2203369 105.83309940000001 260.3967285 106.02871700000001 C 260.9326782 106.62295530000002 261.4614868 107.22915650000002 261.9802246 107.84982300000001 C 263.34948729999996 109.48135380000001 264.6508789 111.19412230000002 265.847168 112.94082640000002 C 267.97564700000004 116.04092410000003 269.7963257 119.28024290000002 271.31372070000003 122.59176630000002 C 269.8082886 122.08853140000002 268.14111330000003 121.70114130000002 266.23510740000006 121.44638060000001 C 263.98480220000005 121.14523310000001 261.7073364000001 121.0229187 259.4179687000001 121.06381220000002 C 261.37530510000005 115.54824820000002 262.20428460000005 110.05905150000001 259.3439331000001 107.48245230000002 C 257.98272700000007 106.25570670000002 256.20928950000007 106.13821400000002 254.46649170000006 106.47665400000002 C 254.8131104 104.9632263 255.027832 103.4710999 255.1859741 102.1175842 z M 240.5498657 130.0986023 C 241.47576899999999 129.13253780000002 242.34906 128.17276 243.22052 127.1603699 C 243.6003418 126.7150574 243.9571533 126.2619324 244.3210449 125.81118780000001 C 248.35211180000002 124.40005500000001 252.4455566 123.50766000000002 256.5181274 123.16995240000001 C 254.50885010000002 128.05728150000002 251.85607910000002 132.7992859 250.2091674 135.04672240000002 C 245.2872924 141.76211550000002 237.4558715 146.8803406 226.93273920000001 150.26052860000001 C 221.6011962 151.9733582 216.01715080000002 153.12979130000002 210.53662100000003 154.1858826 C 211.5534057 152.93197640000002 212.55383290000003 151.67318730000002 213.54400630000004 150.42343140000003 C 213.97515860000004 149.87936400000004 214.41009520000003 149.33291630000002 214.84472650000004 148.7869568 C 223.7155762 143.9616394 232.9475708 138.0064392 240.5498657 130.0986023 z M 218.2303467 144.6339417 C 221.7445069 140.4428406 225.52410890000002 136.4377747 230.0085449 133.2627869 C 233.3754883 130.8747864 236.881958 128.8962098 240.4613037 127.3267517 C 240.0292969 127.8021545 239.5904541 128.2723694 239.1385498 128.7436829 C 232.9301758 135.2013855 225.5753174 140.3444519 218.2303467 144.6339417 z M 246.4066162 123.0881042 C 249.71447750000002 118.4913635 252.2235107 113.6481018 253.8757934 108.63204950000001 C 255.4362792 108.1590881 257.022583 108.0254211 258.0339355 108.93624870000001 C 260.1699218 110.86032100000001 259.2401733 115.90518180000001 257.30487059999996 121.153778 C 253.6721802 121.3823547 250.0216064 122.0343933 246.4066162 123.0881042 z M 252.2880249 107.1095276 C 251.777771 107.30184940000001 251.28735350000002 107.5100403 250.8335571 107.71957400000001 C 250.8341064 107.71896360000001 250.8345947 107.7182312 250.835144 107.7176819 C 251.09234610000001 107.4159241 251.3464355 107.11203 251.5986938 106.8065491 C 251.8586425 106.4917908 252.1168212 106.17581179999999 252.37145990000002 105.8572083 C 252.4776611 105.7244568 252.58831780000003 105.59500129999999 252.6935424 105.46151739999999 C 252.5802612 106.0116882 252.440918 106.5622253 252.2880249 107.1095276 z M 140.9122314 100.6972961 C 140.9432373 100.6853332 140.9733886 100.6719665 141.0029907 100.657135 C 147.1006469 97.5669861 153.906311 94.771637 161.23034669999998 92.3475037 C 191.97607419999997 82.150177 222.77526859999998 82.44259650000001 243.61608889999997 93.1315003 C 247.42810059999996 95.0787659 250.95709229999997 97.4176331 254.19824219999995 100.1013489 C 253.95080569999996 100.46224980000001 253.71008299999994 100.8243714 253.44744869999997 101.1860657 C 251.22088619999997 104.3313294 248.73699949999997 107.3014221 246.03472899999997 110.0907898 C 242.81329349999996 111.615509 239.56909179999997 112.8688049 235.67095949999998 113.5561829 C 222.6358033 115.8680725 208.8782349 115.7008362 195.8898926 113.0717469 C 189.8596192 111.8539124 183.8226319 110.08236699999999 177.98443609999998 108.3691712 C 170.2093507 106.0878602 162.16912849999997 103.7286683 153.97937019999998 102.62124639999999 C 148.6314698 101.89614869999998 143.34051519999997 101.73098759999999 138.19085699999997 102.11648569999998 C 139.0704956 101.6446228 139.9692383 101.172821 140.9122314 100.6972961 z M 100.0632935 145.1126404 C 100.3579712 144.0871887 100.6788941 143.07254030000001 101.0258179 142.0686341 C 101.1220093 141.7903138 101.2357788 141.5191956 101.3359375 141.2425843 C 101.5971069 140.521515 101.8563843 139.7996522 102.1447144 139.0898743 C 102.284729 138.7453308 102.4453736 138.4094544 102.59179689999999 138.0675354 C 102.862732 137.434845 103.1272583 136.7993469 103.42010499999999 136.1758118 C 103.58978269999999 135.81448369999998 103.7810059 135.46243289999998 103.95800779999999 135.1042786 C 104.2514648 134.5105286 104.5372314 133.91336059999998 104.85089109999998 133.32815559999997 C 105.04541009999998 132.9652406 105.26165769999999 132.61166389999997 105.46392819999998 132.25210579999998 C 105.78478999999999 131.6816102 106.09747309999999 131.1075746 106.43780519999999 130.5454408 C 106.65209959999999 130.1913759 106.88800049999999 129.8467714 107.10998539999999 129.49612439999999 C 107.46234139999999 128.9395448 107.80676269999998 128.37948619999997 108.17852789999999 127.83132949999998 C 108.41851809999999 127.47756969999998 108.68017579999999 127.13327039999999 108.92816169999999 126.78298969999999 C 109.30676279999999 126.24813859999999 109.67718509999999 125.70974749999999 110.0746461 125.18313619999999 C 110.3354493 124.8376162 110.617859 124.50161759999999 110.88671889999999 124.15963769999999 C 111.29547129999999 123.63967919999999 111.6961671 123.11618069999999 112.12353529999999 122.60458399999999 C 112.41156019999998 122.25967429999999 112.72149669999999 121.92459129999999 113.01800549999999 121.5835269 C 113.45104989999999 121.0855411 113.87554939999998 120.58371 114.32653819999999 120.0937198 C 114.64068609999998 119.75235020000001 114.97668469999999 119.4209293 115.29962169999999 119.08346590000001 C 115.75720229999999 118.6053165 116.20623789999999 118.12332190000001 116.68133559999998 117.65316800000001 C 117.02606219999998 117.3119815 117.39276139999998 116.9809268 117.74670429999998 116.6439517 C 118.22491469999997 116.1886294 118.69427509999997 115.7292178 119.18920919999998 115.281586 C 119.56915299999999 114.9380191 119.97137469999998 114.6048282 120.36114519999998 114.2657779 C 120.85412619999998 113.83700590000001 121.33782979999998 113.40383940000001 121.84655779999999 112.9823306 C 122.27215589999999 112.6297915 122.72045919999998 112.2879947 123.15698259999999 111.9406436 C 123.6552126 111.5441592 124.1431887 111.1430362 124.65576189999999 110.7532657 C 125.12518329999999 110.3962711 125.617798 110.0503848 126.0993044 109.6990665 C 126.6036379 109.3309635 127.09741229999999 108.9578556 127.6149294 108.5960392 C 128.13641379999999 108.2314152 128.68157979999998 107.87820470000001 129.2163088 107.5200504 C 129.718323 107.1837467 130.2092898 106.842194 130.72296160000002 106.5114444 C 131.3063356 106.1359561 131.9140016 105.7723087 132.51239030000002 105.4040836 C 132.97961440000003 105.11660800000001 133.4362795 104.8240665 133.91265890000003 104.5409855 C 140.29449480000002 103.6369938 146.9563601 103.64346350000001 153.71710230000002 104.5604557 C 161.7601931 105.647858 169.72827170000002 107.9859928 177.433533 110.2472233 C 183.3114017 111.9719547 189.38946560000002 113.755402 195.50195340000002 114.9894718 C 208.72821070000003 117.6663517 222.73706080000002 117.8368839 236.01208520000003 115.4834293 C 238.24029560000002 115.090546 240.24877950000004 114.52078279999999 242.15869160000003 113.835358 C 226.90130630000002 127.5828556 205.82251000000002 136.0329898 183.01953140000003 137.093964 C 177.52386490000004 137.3466495 171.91351330000003 137.2019352 166.48858660000002 137.0619205 C 161.67321790000003 136.93673740000003 156.69354270000002 136.8082584 151.78411880000002 136.95632970000003 C 142.89697280000001 137.21762120000002 135.1036378 139.07852210000001 126.60736100000001 141.87960850000002 C 125.39361590000001 142.27975500000002 124.16552750000001 142.69906650000001 122.91790790000002 143.135712 C 116.23260520000002 145.4800724 110.24053970000001 147.69162020000002 104.61254900000002 151.0258487 C 102.09393330000002 152.51828030000001 99.87463400000001 154.17514070000001 97.98022480000002 155.9483951 C 98.3815918 152.2256165 99.069397 148.5830994 100.0632935 145.1126404 z M 102.7602539 179.0436096 C 102.1864014 178.6058655 101.68011469999999 178.113678 101.2332764 177.5765075 C 101.2092285 177.5262756 101.185791 177.4754333 101.16198729999999 177.4250793 C 101.0067749 177.1004333 100.8548584 176.7756652 100.71313479999999 176.4516296 C 100.5413208 176.05496209999998 100.3779297 175.6518859 100.22033689999999 175.24484249999998 C 100.18988039999999 175.1661682 100.1553345 175.09036249999997 100.12542719999999 175.01132199999998 C 100.1189575 174.99447629999997 100.11389159999999 174.97677609999997 100.1074829 174.9599304 C 99.82531739999999 174.2199402 99.5778198 173.4597473 99.34436029999999 172.69210809999998 C 99.25799559999999 172.4073181 99.17681879999999 172.1195373 99.09710689999999 171.83090199999998 C 98.93658439999999 171.2512511 98.79132079999998 170.66384879999998 98.65814209999999 170.07015979999997 C 98.60284419999999 169.82376089999997 98.53985599999999 169.58132919999997 98.48913579999999 169.33279409999997 C 98.32305909999998 168.51522819999997 98.18408209999998 167.68441759999996 98.06939699999998 166.84286489999997 C 98.04150389999998 166.64163199999996 98.02038579999999 166.43783559999997 97.99542239999998 166.23544299999998 C 97.89471439999998 165.40212999999997 97.81060789999998 164.56155379999998 97.76019289999998 163.7073668 C 97.75860599999997 163.68148789999998 97.75628669999998 163.6557311 97.75469969999997 163.6298522 C 97.75555419999998 163.3236388 97.76330569999998 163.02487169999998 97.78106689999997 162.72140489999998 C 97.85626219999997 161.2876891 97.95574949999997 159.90768419999998 98.07727049999997 158.6109923 C 98.33538819999997 158.33834829999998 98.61303709999997 158.07272329999998 98.88684079999997 157.8056944 C 99.12811279999997 157.5704039 99.35748289999998 157.33065779999998 99.61077879999998 157.0999449 C 99.95275879999998 156.7882994 100.32269289999998 156.4880064 100.68615719999998 156.1850279 C 100.93603509999998 155.9767149 101.17236329999999 155.7627257 101.43218989999998 155.5586241 C 101.86242669999999 155.2207335 102.32232659999998 154.8960264 102.77929679999998 154.5701597 C 103.00006099999999 154.412689 103.20617669999999 154.2486265 103.43298329999999 154.0940244 C 104.13073719999998 153.6187436 104.85583489999999 153.1564634 105.6101073 152.7095029 C 111.0838011 149.4669492 116.9802855 147.2917173 123.5652465 144.9826963 C 133.3741454 141.5500181 141.9365234 139.20370459999998 151.8419189 138.9122617 C 156.7002563 138.76608249999998 161.6498413 138.8941343 166.4379272 139.01834079999998 C 171.89727779999998 139.159271 177.5419921 139.30551119999998 183.1098022 139.0489194 C 184.01672359999998 139.00668309999998 184.92083739999998 138.95223969999998 185.82214349999998 138.88723729999998 C 186.12213129999998 138.86556979999997 186.42010489999998 138.83602879999998 186.7194213 138.81185889999998 C 187.3204955 138.76333599999998 187.9217528 138.71566749999997 188.5200805 138.65713479999997 C 188.8749999 138.62240579999997 189.227539 138.57962019999997 189.58142080000002 138.54129009999997 C 190.11987290000002 138.48306259999998 190.65869130000002 138.42642189999998 191.19476310000002 138.36007669999998 C 191.5751342 138.3130186 191.95306390000002 138.25839209999998 192.33215320000002 138.20730569999998 C 192.83935530000002 138.1389463 193.34704580000002 138.07174659999998 193.8519286 137.99612409999997 C 194.2427977 137.93759139999997 194.6312255 137.87228379999996 195.0205687 137.80935649999998 C 195.5095824 137.73049909999997 195.99871810000002 137.652313 196.48541250000002 137.5666197 C 196.88061510000003 137.4970396 197.27362050000002 137.4214781 197.66729730000003 137.3475035 C 198.14599600000003 137.2575987 198.62445060000002 137.16757189999998 199.10058590000003 137.07113629999998 C 199.49493400000003 136.99130229999997 199.88714600000003 136.90609719999998 200.27978510000003 136.82180769999997 C 200.75024410000003 136.72073349999997 201.22027580000002 136.61904889999997 201.68811030000003 136.51168809999996 C 202.08294670000004 136.42105089999995 202.47570800000003 136.32608019999995 202.86853020000004 136.23104849999996 C 203.32922360000003 136.11959829999995 203.78906240000003 136.00674429999995 204.24707020000002 135.88912959999996 C 204.6416014 135.78787229999998 205.03442370000002 135.68307489999995 205.4269408 135.57730099999995 C 205.8793334 135.45535279999996 206.3306273 135.33126829999995 206.78021230000002 135.20339959999995 C 207.17242420000002 135.09182729999995 207.5632323 134.97750849999994 207.953369 134.86141959999995 C 208.3979491 134.72909539999995 208.84112530000002 134.59402459999995 209.28295880000002 134.45590199999995 C 209.67303450000003 134.33389269999995 210.06207260000002 134.20993029999994 210.44982890000003 134.08346549999996 C 210.88629130000004 133.94107049999997 211.32092270000004 133.79525749999996 211.75439430000003 133.64718619999996 C 212.14172340000002 133.51492299999995 212.52832010000003 133.38156119999996 212.91320780000004 133.24478139999997 C 213.34124740000004 133.09255969999995 213.76684550000004 132.93637079999996 214.19189430000003 132.77871689999998 C 214.57678200000004 132.63589459999997 214.96130350000004 132.4927062 215.34362770000004 132.34542829999998 C 215.76348850000005 132.1835631 216.18054180000004 132.01718119999998 216.59728980000006 131.84994489999997 C 216.97753880000005 131.69735699999998 217.35797100000005 131.54519639999998 217.73559550000004 131.38809189999998 C 218.14959700000006 131.21591169999996 218.56024150000005 131.03823839999998 218.97094710000005 130.86068709999998 C 219.34539780000006 130.69876079999997 219.72051990000006 130.53793319999997 220.09222400000004 130.37161239999998 C 220.49829090000006 130.18991069999998 220.90045150000003 130.00222759999997 221.30310050000006 129.81521589999997 C 221.67358390000007 129.64315779999998 222.04522700000007 129.47293069999998 222.41271960000006 129.29647809999997 C 222.80932600000006 129.10610939999998 223.20129380000006 128.90920999999997 223.59429920000005 128.7137144 C 223.96099840000005 128.5312803 224.32934560000004 128.3514707 224.69287100000005 128.16476419999998 C 225.07983390000004 127.96591169999998 225.46154780000006 127.76004009999998 225.84490960000005 127.55624369999998 C 226.20794670000006 127.36337259999998 226.57318110000006 127.17355329999998 226.93286130000004 126.97622659999998 C 227.31011960000004 126.76925639999997 227.68133540000005 126.55471779999998 228.05487060000004 126.34292579999997 C 228.41302490000004 126.13992289999997 228.77404780000003 125.94070409999998 229.12872310000003 125.73330669999997 C 229.49517820000003 125.51901229999997 229.85498040000002 125.29641709999997 230.21771240000004 125.07748389999998 C 230.98193360000005 124.61618019999997 231.73779300000004 124.14480569999998 232.48504640000004 123.66299419999997 C 232.76623540000006 123.48159769999997 233.05139160000004 123.30477889999997 233.33026120000005 123.12057479999997 C 233.71221920000005 122.86819439999996 234.08636470000005 122.60702499999996 234.46356200000005 122.34933459999998 C 234.77130130000006 122.13906849999998 235.08221430000006 121.93246449999998 235.38677980000006 121.71871939999998 C 235.75524900000005 121.46005239999998 236.11621100000005 121.19357289999998 236.47991940000006 120.92977899999998 C 236.78540040000004 120.70822139999999 237.09362790000006 120.48959349999998 237.39569090000006 120.26443479999998 C 237.75335690000006 119.99789429999997 238.10406490000005 119.72427369999997 238.45690920000007 119.45266719999998 C 238.75701910000006 119.22171019999998 239.05920410000007 118.99295039999998 239.35571290000007 118.75839229999998 C 239.70452880000008 118.48245239999999 240.04681400000007 118.20028679999999 240.39062500000009 117.91940299999999 C 240.6822510000001 117.68118279999999 240.97546390000008 117.44461049999998 241.2634888000001 117.2028503 C 241.60229500000008 116.9185485 241.93505860000008 116.6286315 242.2686768000001 116.339508 C 242.55432130000008 116.0918884 242.8408204000001 115.8453674 243.1226807000001 115.5942687 C 243.4495850000001 115.30313100000001 243.7709961000001 115.0071715 244.0927124000001 114.7112731 C 244.3721924000001 114.454193 244.65191650000008 114.1975402 244.9274902000001 113.9369811 C 245.24304200000012 113.63851919999999 245.5537719000001 113.3359679 245.8641357000001 113.03298939999999 C 246.1372680000001 112.76626579999999 246.40997310000012 112.499237 246.6790161000001 112.2290343 C 246.8557739000001 112.05142199999999 247.03411860000008 111.8752135 247.2091064000001 111.6961364 C 248.17907710000011 111.2311706 249.1478881000001 110.747589 250.1327514000001 110.2448425 C 250.5061035000001 110.05429070000001 250.9583129000001 109.8239441 251.4570922000001 109.5887756 C 249.58563220000008 114.6581726 246.8034667000001 119.5412902 243.15368640000008 124.1472473 C 238.24401840000007 125.92111200000001 233.43536360000007 128.4333191 228.87725820000009 131.6661072 C 222.8176879000001 135.9560852 218.06207270000007 141.6124573 213.56097400000007 147.2571106 C 211.12945540000007 148.5731506 208.72454820000007 149.8095398 206.39294420000007 150.9723816 C 200.89636220000008 153.71786500000002 195.32611070000007 156.3037415 189.69409170000006 158.74142460000002 C 179.37670890000007 161.51632690000002 169.23303210000006 165.03005990000003 159.35131830000006 168.4621888 C 149.55200190000005 171.8657533 139.41918940000005 175.3858338 129.26013180000007 178.1234437 C 122.92553710000007 179.82327279999998 116.09454340000006 181.3893739 109.10632320000006 181.26040659999998 C 108.80499260000006 181.2563783 108.50506590000006 181.24118049999998 108.20465080000007 181.23013319999998 C 106.2014771 180.9277039 104.3510132 180.2590637 102.7602539 179.0436096 z M 210.534668 151.0660095 C 209.5491944 152.3026428 208.5477906 153.53805540000002 207.5268555 154.7623596 C 205.0125733 155.2409363 202.44073490000002 155.7409363 199.89398200000002 156.2814636 C 202.3636475 155.1217346 204.82489020000003 153.94284059999998 207.26721200000003 152.72286979999998 C 208.3416138 152.1871033 209.4342651 151.6322327 210.534668 151.0660095 z M 106.8140259 185.4732971 C 106.0198364 184.7157898 105.2337036 183.84115599999998 104.47949220000001 182.8817444 C 105.65936280000001 183.0352478 106.85351560000001 183.1351013 108.05566410000002 183.1814881 C 109.03375250000002 183.3204652 110.03448490000001 183.3912049 111.05609130000002 183.3912049 C 113.71051020000002 183.3912049 116.48297120000002 182.9793397 119.21765140000002 182.45571909999998 C 143.68988040000002 177.7914735 167.53100590000003 170.45315559999997 190.32623290000004 160.59909069999998 C 193.29382320000005 159.80276499999997 196.27209470000003 159.05953989999998 199.26190180000003 158.41012589999997 C 201.32348630000004 157.95944229999998 203.41247550000003 157.54788219999998 205.48950190000002 157.14700329999997 C 203.08892820000003 159.87527479999997 200.53814690000002 162.48080459999997 197.71203610000003 164.77676399999996 C 186.51525880000003 173.86276249999995 173.13037110000005 180.19210819999995 159.00354000000004 183.08065799999997 C 150.26770020000004 184.87033089999997 141.28820800000005 185.95004279999998 132.31445310000004 186.29025269999997 C 127.70886230000004 186.46414189999996 123.04211420000004 186.44601439999997 118.44415280000004 186.23196409999997 C 117.87133790000004 186.20516969999997 117.00988770000004 186.22048949999996 115.91870110000004 186.24246209999998 C 113.48266590000003 186.29110709999998 107.77709950000003 186.3998107 106.82208240000003 185.4806213 C 106.819458 185.4781189 106.8167114 185.4757996 106.8140259 185.4732971 z M 127.8883057 193.7609558 C 126.03448490000001 193.6556702 124.2111206 193.4425964 122.4179688 193.1003723 C 119.9891358 192.6368713 117.61572269999999 191.9364319 115.2969361 190.9463806 C 115.1870118 190.8994446 115.0827027 190.849884 114.97424319999999 190.8023376 C 114.50476079999999 190.596466 114.04888919999999 190.38497919999998 113.60632329999999 190.16732779999998 C 113.45092779999999 190.09085069999998 113.29760749999998 190.0132751 113.14526369999999 189.9352721 C 112.72802739999999 189.72164909999998 112.32244879999999 189.5015563 111.92736819999999 189.27535999999998 C 111.81353759999999 189.21017449999997 111.69665529999999 189.14682 111.58447269999999 189.08059679999997 C 111.07714849999999 188.78066999999996 110.58404549999999 188.47177109999996 110.1096192 188.14773549999995 C 110.3396607 188.16268909999997 110.5888062 188.16989129999996 110.82983399999999 188.18045029999996 C 111.02453609999999 188.18893419999995 111.2102051 188.20089709999996 111.41156009999999 188.20681749999997 C 111.63702399999998 188.21340929999997 111.87713629999999 188.21469099999996 112.11029059999998 188.21841419999998 C 112.36077889999999 188.22250359999998 112.60467539999999 188.22897329999998 112.86328129999998 188.23019399999998 C 112.88775639999999 188.23031609999998 112.91412359999998 188.22982779999998 112.93865969999999 188.22988879999997 C 113.89941409999999 188.23342879999996 114.91003419999998 188.22000109999996 115.956482 188.19937119999997 C 116.9688111 188.18026719999997 117.8431397 188.16116319999998 118.35290529999999 188.18692 C 123.00531009999999 188.40194689999998 127.72698979999998 188.42105089999998 132.38848879999998 188.24520859999998 C 141.46881109999998 187.90121449999998 150.55578619999997 186.80813579999997 159.395752 184.9974059 C 173.8293458 182.0467833 187.50518799999998 175.5798034 198.94561769999999 166.2959899 C 202.52996829999998 163.3842467 205.65991209999999 160.0256042 208.58636479999998 156.5508117 C 214.85821539999998 155.3581237 221.3319703 154.1147765 227.53088379999997 152.1237487 C 238.45532229999998 148.6146545 246.61645509999997 143.25845329999999 251.78771969999997 136.20388789999998 C 252.71936029999998 134.93234249999998 256.2144775 129.1896057 258.6723022 123.04470819999999 C 261.12676999999996 122.95816029999999 263.5679321 123.06350699999999 265.97521969999997 123.38607779999998 C 267.25476069999996 123.55703729999998 268.4230957 123.78353869999998 269.4932861 124.06900019999998 C 269.8408813 124.16171259999997 270.1621704 124.27090449999997 270.489563 124.37625119999997 C 270.6653442 124.43276979999997 270.85424809999995 124.48104859999997 271.024292 124.54122919999998 C 271.5091553 124.71298209999998 271.9711914 124.90005489999997 272.4124146 125.10232539999997 C 272.46698 125.23574829999997 272.5179444 125.36923209999998 272.57135009999996 125.50271599999996 C 272.7932739 126.05795279999997 273.0075073 126.61434929999996 273.20965579999995 127.17153919999997 C 273.21874999999994 127.19662459999996 273.22760009999996 127.22171009999997 273.23675539999994 127.24679549999998 C 273.29058839999993 127.39523299999998 273.34405519999996 127.54373149999998 273.39648439999996 127.69216899999998 C 273.6378784 128.37881449999998 273.86791989999995 129.06533789999997 274.0772095 129.74789409999997 C 274.3015137 130.82089209999998 274.32543949999996 131.77572609999996 274.14776609999996 132.66415389999997 C 273.60314939999995 135.38833599999998 271.5506591999999 138.52340679999998 270.05242919999995 140.81185899999997 C 267.1018066 145.30807479999996 263.07904049999996 149.59500109999996 257.3908691 154.30331409999997 C 248.85998529999998 161.35238639999997 239.00549309999997 167.48696889999997 227.95306389999996 172.66293319999997 C 223.08044429999995 173.54928569999996 217.92645259999995 174.28939799999998 212.63439929999996 173.91433699999996 C 206.41394029999995 173.46243269999997 201.48828109999997 175.81680279999995 196.72405989999996 178.08712749999995 C 196.39831529999995 178.24221779999996 196.06530749999996 178.39779639999995 195.73559549999996 178.55319199999994 C 195.73345929999996 178.57052599999994 195.73126199999996 178.58792099999994 195.72918679999995 178.60525499999994 C 195.71643049999994 178.71316519999993 195.70477269999995 178.82119739999993 195.69415259999994 178.92929059999994 C 195.67272929999993 179.14834579999996 195.65570049999994 179.36782819999993 195.64379859999994 179.58761579999995 C 195.62268039999995 179.97610459999996 195.62603739999994 180.36581399999994 195.64367649999994 180.75466899999995 C 196.28784149999993 180.45425399999996 196.93524139999994 180.15365579999994 197.56488009999995 179.85385109999996 C 203.13940399999996 177.19943219999996 207.19171119999996 175.49575779999995 212.49487279999994 175.86550879999996 C 215.45147679999994 176.07852149999997 218.34466529999995 175.95498629999994 221.16363499999994 175.65731789999995 C 215.98449679999993 177.80734229999996 210.57513399999993 179.76742529999996 204.92810029999995 181.51840189999996 C 202.59759489999996 182.23690779999995 200.44958469999995 182.86471539999997 198.36273159999996 183.43801859999996 C 197.48843349999996 183.67835979999995 196.61273159999996 183.91351299999997 195.73570219999996 184.14367659999996 C 191.80271879999995 185.17585739999996 187.84324609999996 186.10594159999997 183.86502039999996 186.94677719999996 C 181.77226219999997 187.38909899999996 179.67433129999995 187.80686939999995 177.57228049999998 188.20275859999995 C 175.57577479999998 188.57876569999996 173.66207849999998 189.09649639999995 171.66113239999999 189.44010909999994 C 167.4858089 190.15710429999996 163.28378249999997 190.59976179999995 159.09236099999998 191.17390429999995 C 154.86804149999998 191.75256339999996 150.63598589999998 192.27407829999996 146.39929149999998 192.75338729999996 C 144.6492305 192.95193469999995 142.8982539 193.14315779999995 141.144897 193.31014999999996 C 136.7436523 193.7294617 132.3087769 194.0119324 127.8883057 193.7609558 z M 276.0053101 148.8372498 C 275.6192627 151.84188849999998 274.7296753 154.6721497 273.36236579999996 157.2491761 C 271.2019044 161.3091737 267.76971439999994 164.8713074 263.16790779999997 167.8296204 C 262.84973149999996 168.0293274 262.5305787 168.2214051 262.1588746 168.4440003 L 262.00598149999996 168.5367127 C 261.72314459999996 168.70584110000001 261.43463139999994 168.8797303 261.11163339999996 169.054596 C 260.7743531 169.2514344 260.42749029999993 169.4492493 260.07299809999995 169.6307679 C 259.5054322 169.9289246 258.92828369999995 170.2174378 258.35211189999995 170.4964906 C 257.77398689999995 170.7754823 257.18640149999993 171.0449525 256.59967049999995 171.3048402 C 256.02252209999995 171.5609437 255.44635019999996 171.7969056 254.86926279999994 172.0339051 C 254.85015879999995 172.0396424 254.83099379999993 172.0472718 254.81188979999993 172.0539857 C 254.23095719999992 172.28714 253.65002459999994 172.5097352 253.05950939999994 172.7323915 L 252.81774909999993 172.8193666 C 252.36102299999993 172.9903871 251.89471439999994 173.1528017 251.40356449999993 173.3133241 C 250.71557619999993 173.5589296 250.02764899999994 173.774872 249.29949959999993 174.0051576 C 247.13623059999992 174.67593399999998 244.71209729999993 175.1622621 241.67065439999993 175.53396619999998 C 240.09307869999992 175.72891249999998 238.46875009999994 175.87985239999998 236.89782729999993 176.02603159999998 C 233.32995619999994 176.35763559999998 229.64068619999992 176.70065319999998 226.02978529999993 177.589264 C 211.73333749999992 181.09317019999997 199.44537369999992 188.24044809999998 190.4949952999999 198.26004039999998 C 189.1467896999999 199.77072159999997 187.82818619999992 201.3597108 186.5520631999999 202.89523329999997 C 186.0604249999999 203.48703019999996 185.5729982999999 204.07382219999997 185.0881349999999 204.65176409999998 C 178.7848512999999 212.16506979999997 172.9141847999999 218.1861879 163.90740989999992 214.39248679999997 C 162.52233909999993 213.80892969999996 161.06304949999992 212.99337789999998 159.51660179999993 211.91531389999997 C 158.47320579999993 211.18533339999996 157.45654319999994 210.41708389999997 156.47332789999993 209.67367569999996 C 155.54834009999993 208.97518939999995 154.63250759999994 208.28341689999996 153.72808859999992 207.64511119999997 L 153.28997819999992 207.30972299999996 C 149.7875367999999 204.62661749999995 146.47906509999993 202.09353649999997 142.66125509999992 199.96469129999997 C 142.11413599999992 199.65933239999998 141.58123799999993 199.37509169999996 141.05505389999993 199.10787979999998 C 140.54449479999994 198.8486635 140.03912369999992 198.60623189999998 139.53240989999992 198.37429829999996 C 139.52148459999992 198.36929339999998 139.5103761999999 198.36343399999996 139.4994508999999 198.35842919999996 C 139.4994508999999 198.35842919999996 139.49938989999993 198.35836819999997 139.49932879999992 198.35836819999997 C 139.4907838999999 198.35452299999997 139.4822389999999 198.34988429999999 139.4736939999999 198.34603909999998 C 137.4512940999999 197.41244529999997 135.36254899999992 196.6576236 133.0850831999999 196.03842189999997 C 132.7720948999999 195.95401029999996 132.4575196999999 195.87673979999997 132.1439820999999 195.79483059999998 C 136.7416382999999 195.73989899999998 141.5430909999999 195.2740786 146.6195069999999 194.6978457 C 167.96582049999992 192.2832339 184.08398449999993 189.3918765 198.8806153999999 185.3241885 C 200.9875489999999 184.74612449999998 203.1546632999999 184.1135562 205.5062257999999 183.3883364 C 213.6744996999999 180.85562159999998 221.36480729999988 177.8976137 228.56146259999989 174.540497 C 228.96875019999987 174.4656679 229.37805199999988 174.3916323 229.78112809999988 174.31570449999998 C 233.92138689999987 173.53408829999998 237.00012219999988 171.7711488 240.25933849999987 169.9040834 C 240.95208749999986 169.50753799999998 241.66204849999988 169.10043349999998 242.39971939999987 168.6924745 C 247.74395769999987 165.74661270000001 252.68206799999987 162.2589418 257.2226563999999 158.9280092 C 257.87243669999987 158.4512026 258.5384522999999 157.96579 259.2168580999999 157.472748 C 265.2323609999999 153.0951845 271.9602662999999 148.1891176 276.2718507999999 141.9919741 C 276.3721924 144.3113708 276.2903442 146.6098938 276.0053101 148.8372498 z" stroke-linecap="round" />
</g>
		<g transform="matrix(1.153829125519472 0 0 1.153829125519472 52.663291394722535 -7.179881903962894)"  >
<linearGradient id="SVGID_49_79867" gradientUnits="userSpaceOnUse" gradientTransform="matrix(1 0 0 1 0 0)"  x1="236.8371124" y1="76.912796" x2="233.3687134" y2="112.4637985">
<stop offset="0.000009999999999999999%" style="stop-color:rgb(47,98,174);stop-opacity: 1"/>
<stop offset="24.82354%" style="stop-color:rgb(46,96,173);stop-opacity: 1"/>
<stop offset="51.667609999999996%" style="stop-color:rgb(42,89,168);stop-opacity: 1"/>
<stop offset="79.35029%" style="stop-color:rgb(35,77,161);stop-opacity: 1"/>
<stop offset="100%" style="stop-color:rgb(31,65,154);stop-opacity: 1"/>
</linearGradient>
<path style="stroke: none; stroke-width: 1; stroke-dasharray: none; stroke-linecap: butt; stroke-dashoffset: 0; stroke-linejoin: miter; stroke-miterlimit: 4; fill: url(#SVGID_49_79867); fill-rule: nonzero; opacity: 1;"  paint-order="stroke"  transform=" translate(-233.1421964732244, -143.7773433542173)" d="M 278.9556274 148.9380188 C 278.5256347 152.2779846 277.54559320000004 155.2380066 276.14562980000005 157.8780212 C 273.6655883 162.5379943 269.85559070000005 166.1880188 265.37561030000006 169.06796260000002 C 265.02563470000007 169.2879943 264.67559810000006 169.49801630000002 264.32562250000007 169.70797720000002 C 263.97558590000006 169.91799920000003 263.6156005000001 170.13796990000003 263.24560540000004 170.3379821 C 262.88562 170.5480041 262.51562490000003 170.757965 262.14562980000005 170.9479675 C 261.55560290000005 171.2579651 260.9556274 171.5580139 260.35559070000005 171.8479919 C 259.75561510000006 172.1379699 259.14562980000005 172.4179992 258.53558340000006 172.6880188 C 257.92559800000004 172.9579773 257.3156127000001 173.2079773 256.70562730000006 173.4579773 C 256.6956175000001 173.46798710000002 256.68560780000007 173.46798710000002 256.67559800000004 173.46798710000002 C 256.07562240000004 173.7079773 255.47558580000003 173.9380188 254.86560040000003 174.16799930000002 C 254.78558330000004 174.19796760000003 254.70562730000003 174.22799690000002 254.61560040000003 174.2579651 C 254.13561990000002 174.4380188 253.64562970000003 174.60800170000002 253.15557840000002 174.7679749 C 252.4255979 175.02798470000002 251.69561750000003 175.2579651 250.96557600000003 175.4880066 C 248.35559060000003 176.2980042 245.69561750000003 176.7579651 242.99560530000002 177.0879822 C 237.73559550000002 177.7380066 232.36560040000003 177.8780213 227.1256102 179.1679993 C 213.49560530000002 182.50796509999998 200.69561750000003 189.4880066 191.3156126 199.9880066 C 189.8356321 201.63797 188.4155882 203.3680115 186.99560530000002 205.0779724 L 186.99560530000002 83.8580017 C 206.88561990000002 81.0179748 228.12561020000004 82.1679993 245.3156126 90.9880066 C 249.48559550000002 93.11801150000001 253.4155882 95.70797730000001 257.0256346 98.8080139 C 257.0955809 98.8580017 257.15557839999997 98.9079895 257.2255858 98.96798700000001 C 259.74560529999997 101.1379699 262.1555785 103.59799190000001 264.3956297 106.27798460000001 C 265.8056028 107.95797730000001 267.1456297 109.71798700000001 268.40557839999997 111.5580139 C 271.0355833 115.38797000000001 273.3056028 119.5179748 275.07562229999996 123.8179626 C 275.27563449999997 124.2980041 275.4655759 124.7779846 275.64562959999995 125.257965 C 275.755615 125.5279845 275.85559049999995 125.7879943 275.94561739999995 126.0580138 C 276.32562229999996 127.04800399999999 276.65557829999995 128.048004 276.9655758999999 129.0580138 C 276.9655758999999 129.0679625 276.9655758999999 129.0679625 276.9655758999999 129.0779723 C 277.19561739999995 129.8179625 277.4155880999999 130.5580138 277.6055904999999 131.298004 C 277.7255855999999 131.7179869 277.8256221999999 132.12802109999998 277.91558809999987 132.548004 C 277.9456173999999 132.64797959999999 277.97558569999984 132.7579649 277.9956051999999 132.8580016 C 278.0656124999999 133.1679992 278.13561979999986 133.48800649999998 278.1956173999999 133.798004 C 278.3056027999999 134.2480162 278.3956295999999 134.69796739999998 278.4755856999999 135.14797959999999 C 278.5756222999999 135.66799909999997 278.6555783999999 136.17800889999998 278.7355954999999 136.69796739999998 C 278.7656247999999 136.8580016 278.78558329999987 137.01797469999997 278.80560279999986 137.1880187 C 278.86560039999983 137.5979918 278.92559789999984 137.9980163 278.96557589999986 138.4079894 C 278.98559539999985 138.50796499999998 278.9956051999999 138.6180114 279.00561499999986 138.717987 C 279.02563449999985 138.8979797 279.0455929999999 139.0779724 279.06561259999984 139.25796499999998 C 279.11560039999983 139.72799669999998 279.15557839999985 140.1880187 279.1856076999998 140.6579894 C 279.3756104 143.4380188 279.305603 146.2079773 278.9556274 148.9380188 z" stroke-linecap="round" />
</g>
		<g transform="matrix(1.153829125519472 0 0 1.153829125519472 42.58073200434512 -19.00241078727032)"  >
<path style="stroke: none; stroke-width: 1; stroke-dasharray: none; stroke-linecap: butt; stroke-dashoffset: 0; stroke-linejoin: miter; stroke-miterlimit: 4; fill: rgb(47,98,174); fill-rule: nonzero; opacity: 1;"  paint-order="stroke"  transform=" translate(-224.40384937539216, -133.5310004410197)" d="M 259.5355835 121.4779968 C 257.30560299999996 127.3279724 254.00561519999997 133.1180114 252.40557859999998 135.3080139 C 246.5856323 143.2480163 237.48559569999998 148.20797729999998 228.1156006 151.217987 C 221.725586 153.2679748 215.1256104 154.5179748 208.52563479999998 155.7779846 C 205.44561769999999 156.3580017 202.36560059999996 156.9479675 199.31561279999997 157.6180115 C 196.23559569999998 158.2879944 193.18560789999998 159.0379944 190.14562989999996 159.8580017 C 189.09558109999995 160.13797 188.04559329999995 160.42800899999997 186.99560549999995 160.7179871 L 186.99560549999995 111.10800169999999 C 189.93560789999995 111.90798949999999 192.89562989999996 112.62802119999999 195.88562009999995 113.23800659999999 C 209.37561029999995 115.96798709999999 223.37561029999995 116.13797 236.91558839999996 113.73800659999999 C 241.03558349999997 113.00796509999999 244.40557859999996 111.7079773 247.91558839999996 110.03799439999999 C 248.94561769999996 109.5480042 249.98559569999995 109.02798459999998 251.06561279999997 108.47799679999999 C 251.99560549999998 107.99801629999999 253.23559569999998 107.37802119999999 254.54559329999998 106.93801879999998 C 256.5756226 106.22799679999999 258.7855835 105.94796749999998 260.265625 107.28799439999997 C 262.9456177 109.6979675 261.7756348 115.6180115 259.5355835 121.4779968 z" stroke-linecap="round" />
</g>
		<g transform="matrix(1.153829125519472 0 0 1.153829125519472 52.499925144285385 -9.798321438710985)"  >
<path style="stroke: none; stroke-width: 1; stroke-dasharray: none; stroke-linecap: butt; stroke-dashoffset: 0; stroke-linejoin: miter; stroke-miterlimit: 4; fill: rgb(45,106,179); fill-rule: nonzero; opacity: 1;"  paint-order="stroke"  transform=" translate(-233.0006103, -141.5079956)" d="M 279.0056152 138.7179871 C 278.93560790000004 138.84799199999998 278.8555908 138.9679871 278.78558350000003 139.09799199999998 C 274.2456055 147.058014 265.22558590000006 153.13796999999997 258.1755981 158.31796269999998 C 253.33563230000001 161.8680115 248.3956298 165.3279725 243.1356201 168.2279969 C 238.7955932 170.6280213 235.46557620000002 172.9380189 230.5355835 173.8680115 C 230.0955811 173.9479676 229.6655884 174.0279846 229.2255859 174.1080017 C 223.845581 175.09799189999998 218.5856323 175.8279724 213.1256103 175.43801879999998 C 207.24560540000002 175.01797489999998 202.6356201 177.09799189999998 197.3656005 179.6080017 C 193.9655761 181.2279968 190.5056151 182.79800409999999 186.9956054 184.20797729999998 L 186.9956054 137.53799439999997 C 209.7155761 135.59799199999998 232.18560779999999 126.16799929999998 247.9155883 110.03799439999997 C 250.7556152 107.13796999999997 253.3656005 104.01797489999997 255.7255859 100.68801879999998 C 256.1755981 100.06796259999999 256.6055908 99.44796749999998 257.0256347 98.80801389999998 C 257.09558100000004 98.85800169999997 257.1555785 98.90798949999997 257.2255859 98.96798699999998 C 259.7456054 101.13796989999997 262.1555786 103.59799189999998 264.3956298 106.27798459999998 C 265.8056029 107.95797729999998 267.1456298 109.71798699999998 268.4055785 111.55801389999998 C 271.0355834 115.38796999999998 273.3056029 119.51797479999998 275.0756224 123.81796259999997 C 275.2756346 124.29800409999997 275.465576 124.77798459999997 275.6456297 125.25796499999997 C 275.7556151 125.52798449999997 275.85559059999997 125.78799429999997 275.94561749999997 126.05801379999997 C 276.3256224 127.04800399999996 276.65557839999997 128.04800399999996 276.96557599999994 129.05801379999997 C 276.96557599999994 129.06796249999996 276.96557599999994 129.06796249999996 276.96557599999994 129.07797229999997 C 277.19561749999997 129.81796249999996 277.41558819999995 130.55801379999997 277.6055905999999 131.29800399999996 C 277.7255856999999 131.71798689999997 277.8256222999999 132.12802109999996 277.9155881999999 132.54800399999996 C 277.9456174999999 132.64797959999996 277.97558579999986 132.75796489999996 277.9956052999999 132.85800159999997 C 278.0656125999999 133.16799919999997 278.1356198999999 133.48800649999995 278.1956174999999 133.79800399999996 C 278.30560289999994 134.24801619999997 278.3956296999999 134.69796739999995 278.4755857999999 135.14797959999996 C 278.57562239999993 135.66799909999995 278.65557849999993 136.17800889999995 278.7355955999999 136.69796739999995 C 278.7656248999999 136.85800159999997 278.7855833999999 137.01797469999994 278.8056028999999 137.18801869999996 C 278.86560049999986 137.59799179999996 278.92559799999987 137.99801629999996 278.9655759999999 138.40798939999996 C 278.9855957 138.5079651 278.9956055 138.6180115 279.0056152 138.7179871 z" stroke-linecap="round" />
</g>
		<g transform="matrix(1.153829125519472 0 0 1.153829125519472 39.069337335024954 -21.988528976705624)"  >
<linearGradient id="SVGID_50_79868" gradientUnits="userSpaceOnUse" gradientTransform="matrix(1 0 0 1 0 0)"  x1="212.7549286" y1="109.5772171" x2="223.4269867" y2="136.0733337">
<stop offset="0%" style="stop-color:rgb(40,73,158);stop-opacity: 1"/>
<stop offset="25.51099%" style="stop-color:rgb(41,75,160);stop-opacity: 1"/>
<stop offset="53.095130000000005%" style="stop-color:rgb(43,82,164);stop-opacity: 1"/>
<stop offset="81.55383%" style="stop-color:rgb(46,94,171);stop-opacity: 1"/>
<stop offset="100%" style="stop-color:rgb(50,103,178);stop-opacity: 1"/>
</linearGradient>
<path style="stroke: none; stroke-width: 1; stroke-dasharray: none; stroke-linecap: butt; stroke-dashoffset: 0; stroke-linejoin: miter; stroke-miterlimit: 4; fill: url(#SVGID_50_79868); fill-rule: nonzero; opacity: 1;"  paint-order="stroke"  transform=" translate(-221.36059575, -130.94299314999998)" d="M 255.7255859 100.6880188 C 255.4855957 102.8279724 255.1555786 104.94796749999999 254.54559319999998 106.9380188 C 254.5056152 107.0679626 254.4655761 107.19796749999999 254.42559809999997 107.3279724 C 252.36560049999997 113.60800169999999 249.0856323 119.31796259999999 244.98559569999998 124.4380188 C 244.56561279999997 124.96798709999999 244.13562009999998 125.48800659999999 243.69561769999999 126.00796509999999 C 242.82562259999997 127.0179749 241.93560789999998 127.9980164 241.0056153 128.9679871 C 233.49560549999998 136.7779847 224.3756104 142.7779847 214.8156129 147.9679871 C 212.3256227 149.3279725 209.7955934 150.6280213 207.2656251 151.88797 C 201.6356202 154.6979676 195.9255982 157.3580017 190.14562999999998 159.8580017 C 189.09558119999997 160.3080139 188.04559339999997 160.75796509999998 186.99560559999998 161.19796749999998 L 186.99560559999998 137.53799439999997 C 209.71557629999998 135.59799199999998 232.18560799999997 126.16799929999998 247.91558849999998 110.03799439999997 C 250.7556152 107.13797 253.3656006 104.0179749 255.7255859 100.6880188 z" stroke-linecap="round" />
</g>
		<g transform="matrix(1.153829125519472 0 0 1.153829125519472 52.66329142491418 15.285606790775546)"  >
<path style="stroke: none; stroke-width: 1; stroke-dasharray: none; stroke-linecap: butt; stroke-dashoffset: 0; stroke-linejoin: miter; stroke-miterlimit: 4; fill: rgb(49,197,244); fill-rule: nonzero; opacity: 1;"  paint-order="stroke"  transform=" translate(-233.14219649939085, -163.24772089788013)" d="M 278.9556274 148.9380188 C 278.5256347 152.2779846 277.54559320000004 155.2380066 276.14562980000005 157.8780212 C 273.6655883 162.5379943 269.85559070000005 166.1880188 265.37561030000006 169.06796260000002 C 265.02563470000007 169.2879943 264.67559810000006 169.49801630000002 264.32562250000007 169.70797720000002 C 263.97558590000006 169.91799920000003 263.6156005000001 170.13796990000003 263.24560540000004 170.3379821 C 262.88562 170.5480041 262.51562490000003 170.757965 262.14562980000005 170.9479675 C 261.55560290000005 171.2579651 260.9556274 171.5580139 260.35559070000005 171.8479919 C 259.75561510000006 172.1379699 259.14562980000005 172.4179992 258.53558340000006 172.6880188 C 257.92559800000004 172.9579773 257.3156127000001 173.2079773 256.70562730000006 173.4579773 C 256.6956175000001 173.46798710000002 256.68560780000007 173.46798710000002 256.67559800000004 173.46798710000002 C 256.07562240000004 173.7079773 255.47558580000003 173.9380188 254.86560040000003 174.16799930000002 C 254.78558330000004 174.19796760000003 254.70562730000003 174.22799690000002 254.61560040000003 174.2579651 C 254.13561990000002 174.4380188 253.64562970000003 174.60800170000002 253.15557840000002 174.7679749 C 252.4255979 175.02798470000002 251.69561750000003 175.2579651 250.96557600000003 175.4880066 C 248.35559060000003 176.2980042 245.69561750000003 176.7579651 242.99560530000002 177.0879822 C 237.73559550000002 177.7380066 232.36560040000003 177.8780213 227.1256102 179.1679993 C 213.49560530000002 182.50796509999998 200.69561750000003 189.4880066 191.3156126 199.9880066 C 189.8356321 201.63797 188.4155882 203.3680115 186.99560530000002 205.0779724 L 186.99560530000002 173.87802119999998 C 191.05560290000003 171.50796499999998 194.93560770000002 168.83798209999998 198.57562240000001 165.87802119999998 C 202.2855833 162.86801139999997 205.49560530000002 159.39797969999998 208.52563460000002 155.77798459999997 C 210.66558820000003 153.21798699999997 212.7255858 150.57797239999996 214.8156126 147.96798699999997 C 219.465576 142.12802119999998 224.23559550000002 136.42800899999997 230.3756102 132.07797239999996 C 234.8656004 128.89797969999995 239.79559310000002 126.27798459999997 244.9855956 124.43801879999997 C 249.675598 122.76797489999997 254.5756225 121.72799679999997 259.5355834 121.47799679999997 C 262.2955932 121.33798219999997 265.0756225 121.43801879999997 267.845581 121.80801389999998 C 270.3156127 122.13796999999998 272.845581 122.72799679999997 275.0756225 123.81796259999997 C 275.2756347 124.29800409999997 275.4655761 124.77798459999997 275.6456298 125.25796499999997 C 275.7556152 125.52798449999997 275.8555907 125.78799429999997 275.9456176 126.05801379999997 C 276.3256225 127.04800399999996 276.6555785 128.04800399999996 276.96557609999996 129.05801379999997 C 276.96557609999996 129.06796249999996 276.96557609999996 129.06796249999996 276.96557609999996 129.07797229999997 C 277.1956176 129.81796249999996 277.41558829999997 130.55801379999997 277.60559069999994 131.29800399999996 C 277.7255857999999 131.71798689999997 277.82562239999993 132.12802109999996 277.9155882999999 132.54800399999996 C 277.94561759999993 132.64797959999996 277.9755858999999 132.75796489999996 277.99560539999993 132.85800159999997 C 278.0656126999999 133.16799919999997 278.1356199999999 133.48800649999995 278.19561759999993 133.79800399999996 C 278.30560299999996 134.24801619999997 278.39562979999994 134.69796739999995 278.47558589999994 135.14797959999996 C 278.57562249999995 135.66799909999995 278.65557859999996 136.17800889999995 278.7355956999999 136.69796739999995 C 278.76562499999994 136.85800159999997 278.7855834999999 137.01797469999994 278.8056029999999 137.18801869999996 C 278.8656005999999 137.59799179999996 278.9255980999999 137.99801629999996 278.9655760999999 138.40798939999996 C 278.9855955999999 138.50796499999996 278.99560539999993 138.61801139999997 279.0056151999999 138.71798699999997 C 279.0256346999999 138.89797969999998 279.0455931999999 139.07797239999996 279.0656127999999 139.25796499999996 C 279.1156005999999 139.72799669999995 279.1555785999999 140.18801869999996 279.18560789999987 140.65798939999996 C 279.3756104 143.4380188 279.305603 146.2079773 278.9556274 148.9380188 z" stroke-linecap="round" />
</g>
		<g transform="matrix(1.153829125519472 0 0 1.153829125519472 51.45033242281744 5.478059223860072)"  >
<linearGradient id="SVGID_51_79869" gradientUnits="userSpaceOnUse" gradientTransform="matrix(1 0 0 1 0 0)"  x1="259.5954285" y1="136.0652161" x2="198.8330231" y2="171.1670074">
<stop offset="0%" style="stop-color:rgb(67,162,218);stop-opacity: 1"/>
<stop offset="100%" style="stop-color:rgb(42,197,244);stop-opacity: 1"/>
</linearGradient>
<path style="stroke: none; stroke-width: 1; stroke-dasharray: none; stroke-linecap: butt; stroke-dashoffset: 0; stroke-linejoin: miter; stroke-miterlimit: 4; fill: url(#SVGID_51_79869); fill-rule: nonzero; opacity: 1;"  paint-order="stroke"  transform=" translate(-232.09094985006521, -154.74772089788013)" d="M 277.0455933 132.4779968 C 276.4556275 135.428009 274.3455811 138.6679992 272.7155762 141.15798949999999 C 269.1856079 146.53799439999997 264.5056153 151.0879822 259.5756226 155.1679993 C 250.34558109999998 162.7879944 240.07562259999997 169.0279847 229.22558599999996 174.1080017 C 221.58563239999995 177.67800899999997 213.66558839999996 180.6679993 205.61560059999996 183.1679993 C 203.37561039999997 183.8580017 201.13562009999995 184.51797489999998 198.87561039999997 185.13797 C 194.93560799999997 186.2179871 190.97558599999996 187.1979676 186.99560549999998 188.0779724 L 186.99560549999998 173.8780212 C 191.05560309999998 171.507965 194.93560789999998 168.8379821 198.57562259999997 165.8780212 C 202.28558349999997 162.8680114 205.49560549999998 159.3979797 208.52563479999998 155.7779846 C 210.6655884 153.217987 212.72558599999996 150.5779724 214.81561279999997 147.967987 C 219.46557619999996 142.1280212 224.23559569999998 136.428009 230.37561039999997 132.0779724 C 234.86560059999996 128.89797969999998 239.79559329999998 126.2779846 244.98559579999997 124.4380188 C 249.67559819999997 122.7679749 254.57562269999997 121.7279968 259.5355836 121.4779968 C 262.2955934 121.3379822 265.0756227 121.4380188 267.84558119999997 121.8080139 C 270.31561289999996 122.13797000000001 272.84558119999997 122.7279968 275.0756227 123.8179626 C 275.7955934 125.53799430000001 276.59558119999997 127.2779846 276.9655763 129.0580139 C 276.9655763 129.0679626 276.9655763 129.0679626 276.9655763 129.0779724 C 277.2056274 130.1979675 277.2756348 131.3379822 277.0455933 132.4779968 z" stroke-linecap="round" />
</g>
</g>
</g>
</svg>